 <svg  version="1.0" xmlns="http://www.w3.org/2000/svg"  width="1632.000000pt" height="288.000000pt" viewBox="0 0 1632.000000 288.000000"  preserveAspectRatio="xMidYMid meet">  <g transform="translate(0.000000,288.000000) scale(0.100000,-0.100000)" fill="#ffffff" stroke="none"> <path d="M1645 2806 c-38 -17 -58 -40 -79 -95 -16 -43 -16 -47 0 -85 18 -41 242 -276 263 -276 5 0 16 6 23 14 7 7 63 65 124 128 116 120 131 147 114 207 -20 72 -71 111 -146 111 -36 0 -59 -6 -77 -20 -30 -24 -50 -25 -71 -5 -34 35 -99 44 -151 21z m274 -145 c19 -12 7 -42 -35 -85 -39 -40 -52 -43 -94 -21 -37 19 -60 52 -60 87 l0 28 88 0 c48 0 93 -4 101 -9z"/> <path d="M1177 2615 c-23 -9 -95 -17 -174 -19 -135 -5 -171 -12 -251 -47 -82 -36 -192 -161 -192 -217 0 -10 -5 -23 -12 -30 -6 -6 -12 -42 -12 -79 -1 -92 36 -170 99 -210 l44 -28 3 -180 c2 -99 0 -186 -3 -194 -3 -7 -26 -23 -50 -35 -32 -16 -51 -36 -71 -72 l-27 -49 0 -442 c-1 -429 0 -443 19 -453 12 -7 142 -9 377 -8 l357 3 6 23 c3 12 1 79 -4 147 -5 69 -6 128 -3 132 4 3 21 -6 39 -21 101 -82 230 -180 255 -193 107 -55 260 -70 361 -34 29 10 58 23 65 30 6 6 21 11 33 11 20 0 23 -6 26 -47 l3 -48 366 -3 c301 -2 368 0 378 11 8 11 9 215 4 788 l-8 774 -28 58 c-37 75 -109 146 -183 181 -50 24 -76 29 -203 37 -166 10 -236 20 -268 37 -30 17 -61 0 -68 -36 -4 -15 -10 -46 -16 -69 -20 -90 -6 -137 58 -205 l36 -37 -5 -80 c-3 -49 -10 -88 -19 -98 -22 -27 -59 -99 -59 -115 0 -8 19 -34 41 -57 40 -41 42 -44 36 -94 -4 -40 0 -62 17 -97 20 -44 43 -60 127 -95 18 -8 25 -19 27 -47 3 -33 0 -38 -18 -38 -12 0 -35 11 -52 25 -34 29 -48 31 -87 10 -35 -17 -56 -65 -47 -106 13 -65 -29 -88 -82 -44 -16 13 -51 30 -78 37 -65 16 -72 23 -47 50 53 59 58 81 57 273 0 172 -1 183 -26 236 -26 57 -68 98 -123 119 -32 12 -426 17 -445 5 -5 -3 -10 -41 -10 -84 0 -76 1 -79 35 -114 l35 -36 -6 -129 c-8 -140 3 -191 53 -259 12 -17 23 -36 23 -41 0 -5 -24 -14 -54 -21 -30 -7 -60 -19 -66 -27 -15 -17 -52 -18 -68 -2 -7 7 -12 23 -12 35 0 59 -134 243 -177 243 -35 0 -59 75 -30 97 6 5 33 17 59 27 67 25 88 62 88 158 0 73 0 74 40 113 22 21 40 46 40 54 0 7 -17 44 -38 81 -31 53 -40 80 -44 134 -6 67 -6 68 33 112 58 68 63 81 61 171 -2 106 -19 143 -65 142 -17 0 -49 -7 -70 -14z m-26 -145 c25 -14 24 -52 -2 -76 -18 -16 -34 -19 -113 -16 -146 4 -177 -8 -269 -100 -44 -43 -81 -78 -82 -78 -13 0 -13 64 0 100 37 104 132 159 290 167 55 2 102 6 104 9 8 8 52 4 72 -6z m1257 -200 c101 -8 117 -13 157 -40 49 -34 79 -69 103 -120 14 -30 17 -86 20 -370 3 -344 0 -400 -22 -400 -49 0 -86 152 -52 218 13 25 16 65 16 210 0 99 -3 194 -7 212 -4 22 -29 58 -74 105 -79 83 -107 95 -225 95 -89 0 -124 14 -138 52 -15 42 6 60 63 53 25 -3 97 -9 159 -15z m-1267 -85 c6 -75 12 -95 41 -137 24 -35 23 -54 -7 -90 -14 -16 -25 -38 -25 -49 0 -30 -27 -34 -75 -10 -49 24 -72 20 -81 -16 -9 -33 12 -52 62 -59 78 -11 84 -13 84 -38 0 -54 -44 -71 -166 -63 -68 4 -92 10 -123 30 -83 55 -124 197 -57 197 50 0 52 26 17 168 -13 50 1 86 46 121 24 20 37 21 152 19 l126 -3 6 -70z m1332 -155 l38 -35 1 -211 c0 -117 -2 -216 -5 -222 -11 -17 -92 -32 -172 -32 -72 0 -78 2 -106 30 -17 16 -28 34 -25 38 3 5 33 17 68 27 76 22 88 31 88 61 0 38 -34 49 -74 25 -49 -30 -75 -28 -82 8 -4 16 -17 40 -30 52 -30 28 -30 46 1 100 20 35 25 58 25 115 0 39 3 74 8 78 4 4 57 6 118 4 l110 -3 37 -35z m-615 -317 c5 -10 6 -81 3 -158 -8 -156 -19 -184 -89 -225 -44 -26 -150 -28 -190 -3 -77 48 -89 80 -92 243 -2 74 -2 141 -1 148 1 9 44 12 181 12 161 0 180 -2 188 -17z m-1020 -29 c28 -15 66 -25 91 -26 38 0 71 -18 71 -37 0 -4 -6 -16 -14 -27 -13 -16 -18 -17 -35 -6 -12 6 -52 12 -90 12 -96 0 -101 3 -101 61 0 58 7 60 78 23z m47 -190 c137 -11 161 -29 284 -211 23 -35 68 -84 100 -110 166 -135 197 -158 266 -194 76 -41 158 -70 178 -64 40 12 67 14 67 5 0 -13 -42 -34 -138 -66 -94 -32 -111 -29 -212 31 -30 18 -72 36 -92 40 -34 6 -40 3 -87 -40 -42 -39 -54 -60 -73 -118 -17 -53 -29 -75 -48 -84 -18 -9 -83 -13 -218 -13 l-194 0 -29 29 -29 29 0 338 0 337 25 43 c31 52 51 66 90 60 17 -3 66 -8 110 -12z m1639 -27 c20 -32 -5 -51 -78 -60 -80 -10 -99 -5 -94 25 3 20 12 25 66 34 34 6 66 14 69 18 10 9 25 2 37 -17z m-308 -162 c2 -58 4 -64 23 -70 10 -3 31 0 45 6 23 11 29 9 51 -11 29 -27 33 -65 7 -79 -30 -16 -140 -51 -162 -51 -19 0 -20 6 -20 113 0 63 3 117 7 121 4 4 16 6 28 4 15 -2 20 -11 21 -33z m321 -15 c22 -78 110 -160 172 -160 11 0 23 -5 27 -11 4 -7 7 -120 7 -253 l0 -241 -307 -3 c-334 -3 -326 -4 -312 54 5 17 19 30 44 41 20 8 64 28 97 43 33 16 77 36 98 44 33 13 37 19 37 50 0 47 -27 55 -83 25 -391 -210 -450 -231 -589 -210 -87 13 -162 44 -155 64 2 7 37 14 93 18 152 10 169 18 379 176 60 46 118 83 129 83 26 0 121 29 172 52 52 23 69 42 84 95 11 37 10 45 -7 75 -10 18 -31 39 -46 46 -26 12 -35 40 -20 56 4 4 43 5 87 4 l80 -3 13 -45z m-779 -66 c4 -26 -50 -74 -82 -74 -32 0 -76 37 -76 64 0 12 2 25 4 27 2 2 37 4 78 4 67 0 73 -2 76 -21z m-219 -38 c36 -69 69 -91 136 -91 65 0 100 23 132 85 13 24 27 48 31 52 10 10 111 -9 130 -24 20 -17 14 -38 -15 -51 -16 -6 -79 -42 -142 -79 -63 -38 -119 -68 -125 -68 -14 0 -120 54 -138 69 -7 7 -44 34 -83 62 -38 27 -70 55 -70 62 0 15 61 37 94 34 19 -1 31 -15 50 -51z"/> <path d="M993 2183 c-29 -6 -45 -27 -41 -54 4 -28 30 -44 54 -34 11 4 35 8 54 9 30 1 35 5 38 27 2 14 -3 30 -10 36 -16 13 -66 22 -95 16z"/> <path d="M2272 1984 c-16 -11 -22 -24 -20 -42 3 -26 6 -27 70 -30 58 -3 67 0 72 16 18 56 -67 95 -122 56z"/> <path d="M1572 1638 c-34 -34 6 -90 48 -68 25 13 28 65 4 74 -24 9 -39 7 -52 -6z"/> <path d="M1722 1638 c-33 -33 8 -90 48 -68 25 13 27 65 4 74 -24 9 -39 7 -52 -6z"/> <path d="M1576 1487 c-24 -18 -17 -45 17 -71 39 -29 125 -29 164 0 35 27 41 59 13 74 -17 9 -27 7 -54 -10 -31 -19 -62 -19 -76 0 -11 16 -47 19 -64 7z"/> <path d="M1423 2362 c-12 -2 -36 -16 -53 -32 -26 -24 -30 -35 -30 -79 0 -51 1 -53 76 -126 113 -112 101 -112 206 -6 l91 90 -5 51 c-4 42 -11 57 -34 76 -32 26 -92 32 -124 12 -16 -10 -28 -10 -62 3 -24 8 -53 13 -65 11z"/> <path d="M4923 2033 c-67 -4 -75 -11 -43 -43 19 -19 20 -33 20 -250 l0 -230 -25 -16 c-14 -9 -22 -20 -19 -25 7 -12 201 -12 209 0 3 6 -4 15 -15 21 -20 11 -21 18 -20 268 1 141 1 263 0 270 0 6 -10 11 -22 10 -13 -1 -51 -3 -85 -5z"/> <path d="M10400 2032 c-17 -6 -11 -26 10 -40 19 -12 20 -23 20 -252 0 -229 -1 -240 -20 -250 -30 -16 -55 2 -80 57 -13 27 -26 56 -31 65 -5 9 -20 48 -33 85 -13 37 -34 93 -46 123 -11 30 -28 75 -37 100 -20 59 -30 70 -62 70 -39 0 -49 -11 -72 -76 -11 -32 -25 -63 -30 -68 -5 -6 -9 -18 -9 -27 0 -9 -7 -19 -15 -23 -8 -3 -15 -13 -15 -22 0 -9 -6 -28 -14 -42 -8 -15 -24 -56 -36 -92 -28 -85 -47 -120 -79 -147 -22 -19 -24 -24 -11 -33 16 -11 112 -13 148 -4 32 9 27 30 -8 38 -27 5 -30 9 -30 46 0 46 37 120 60 120 8 0 22 4 29 9 12 8 9 12 -12 22 -26 12 -27 15 -21 58 4 25 13 51 20 59 8 7 14 18 14 23 0 16 20 10 26 -8 3 -10 14 -39 24 -64 11 -25 16 -55 13 -67 -3 -12 -1 -22 4 -22 11 0 48 -89 58 -137 6 -29 3 -34 -19 -43 -64 -24 -21 -30 212 -30 131 0 242 3 245 7 4 3 -5 17 -19 30 l-26 24 3 257 3 257 -77 0 c-42 0 -81 -1 -87 -3z"/> <path d="M10703 2033 c-66 -4 -80 -18 -43 -41 19 -12 20 -23 20 -247 0 -224 -1 -235 -20 -247 -11 -7 -20 -18 -20 -25 0 -10 27 -13 103 -13 57 0 107 3 110 7 4 3 -5 17 -20 30 l-26 25 4 256 4 257 -25 1 c-14 0 -53 -1 -87 -3z"/> <path d="M4646 2008 c-22 -31 -20 -51 7 -76 48 -45 147 -20 147 37 0 42 -28 61 -88 61 -41 0 -54 -4 -66 -22z"/> <path d="M9568 2005 c-27 -18 -40 -36 -49 -67 -6 -24 -15 -56 -20 -72 -6 -19 -6 -33 1 -40 6 -6 10 -71 10 -158 0 -135 -2 -150 -20 -168 -37 -37 -26 -41 103 -38 120 3 152 14 87 31 l-30 8 -1 107 c-1 59 -3 157 -5 219 -2 114 5 170 22 165 5 -1 9 -16 9 -33 1 -55 65 -79 105 -39 28 28 25 47 -11 81 -28 26 -38 29 -98 28 -52 0 -74 -5 -103 -24z"/> <path d="M3369 1989 c-15 -3 -79 -5 -143 -4 -123 2 -137 -3 -96 -40 19 -18 20 -29 18 -229 l-3 -211 -27 -13 c-16 -7 -28 -17 -28 -22 0 -11 270 -18 293 -7 24 11 12 27 -22 27 -16 0 -34 7 -42 16 -18 22 -29 175 -14 192 22 24 61 4 87 -44 38 -72 48 -59 48 60 0 58 -4 107 -9 111 -6 3 -18 -6 -28 -21 -43 -62 -70 -87 -86 -81 -14 5 -17 22 -17 100 0 79 3 98 20 120 19 24 22 25 48 11 15 -7 32 -14 39 -14 20 0 53 -42 64 -83 8 -31 14 -38 32 -35 20 3 22 9 23 76 0 41 -4 76 -10 81 -15 12 -116 19 -147 10z"/> <path d="M5800 1986 c-61 -17 -83 -30 -114 -67 -31 -36 -35 -92 -9 -129 22 -32 85 -90 98 -90 6 -1 35 -20 65 -43 76 -59 86 -117 28 -151 -38 -23 -88 -16 -122 16 -13 13 -33 50 -44 83 -11 36 -25 61 -35 63 -13 3 -16 -12 -19 -95 -3 -107 2 -124 32 -105 26 16 40 15 80 -4 66 -34 215 3 267 65 28 33 31 105 6 141 -21 31 -28 36 -129 105 -44 30 -87 66 -94 79 -29 56 17 104 87 91 38 -7 80 -55 89 -104 19 -96 53 -1 45 127 -1 14 -33 16 -46 3 -6 -6 -25 -2 -49 10 -45 22 -72 23 -136 5z"/> <path d="M8375 1965 c-16 -8 -40 -14 -52 -15 -28 0 -26 20 -23 -235 1 -198 3 -211 23 -232 16 -18 31 -23 71 -23 78 1 133 55 64 62 l-33 3 -3 144 c-1 79 1 148 6 155 11 15 0 149 -13 152 -5 1 -23 -4 -40 -11z"/> <path d="M5357 1856 c-3 -8 3 -25 15 -38 17 -20 19 -32 14 -85 -3 -35 -3 -63 1 -63 9 0 32 34 33 48 0 19 38 100 50 107 5 3 10 15 10 26 0 17 -7 19 -59 19 -42 0 -60 -4 -64 -14z"/> <path d="M6170 1863 c-67 -5 -80 -15 -54 -44 17 -18 19 -40 22 -168 3 -132 6 -148 25 -168 17 -19 31 -23 79 -23 43 0 60 4 64 15 4 8 14 15 24 15 10 0 20 -7 24 -15 4 -12 24 -15 91 -15 87 0 104 9 68 36 -16 11 -18 33 -18 191 -1 177 -1 178 -23 177 -12 0 -49 -1 -82 -2 -64 -2 -77 -16 -45 -48 12 -12 15 -43 15 -140 0 -69 -5 -134 -10 -145 -13 -23 -62 -26 -80 -5 -8 11 -11 61 -10 168 2 190 3 178 -17 176 -10 -1 -43 -3 -73 -5z"/> <path d="M3705 1850 c-5 -8 0 -19 14 -29 21 -16 22 -23 19 -168 -2 -183 2 -193 88 -193 29 0 55 4 58 9 3 5 -1 22 -9 37 -11 22 -15 64 -15 165 0 129 -1 137 -23 158 -29 26 -120 41 -132 21z"/> <path d="M3936 1851 c-3 -5 6 -21 19 -35 24 -26 25 -32 25 -162 0 -121 -2 -136 -20 -154 -35 -35 -24 -40 75 -40 74 0 95 3 95 14 0 7 -7 19 -16 26 -13 11 -14 35 -10 154 2 78 5 152 6 165 1 13 -4 27 -12 32 -17 11 -155 11 -162 0z"/> <path d="M4163 1853 c-19 -7 -16 -23 10 -43 21 -18 22 -24 20 -161 -2 -111 -6 -145 -18 -159 -8 -9 -12 -20 -8 -23 3 -4 45 -7 93 -7 48 0 90 3 93 7 4 3 -1 15 -10 26 -15 16 -18 41 -19 161 -1 151 -6 171 -51 194 -22 12 -87 15 -110 5z"/> <path d="M4373 1854 c-18 -8 -16 -34 1 -34 8 0 22 -10 30 -22 22 -30 23 -243 2 -293 -8 -18 -12 -36 -8 -39 9 -10 180 -7 187 3 3 6 -3 15 -14 20 -18 10 -20 24 -23 166 -3 144 -5 156 -25 177 -17 16 -36 22 -80 25 -32 1 -64 0 -70 -3z"/> <path d="M4627 1848 c-8 -5 -4 -15 11 -31 21 -22 22 -32 22 -165 0 -140 0 -142 -25 -158 -14 -9 -22 -20 -19 -25 7 -12 201 -12 209 0 3 5 -4 16 -15 24 -18 12 -20 27 -22 188 l-3 174 -73 0 c-41 0 -79 -3 -85 -7z"/> <path d="M5090 1846 c0 -8 5 -18 11 -21 5 -4 14 -17 20 -28 5 -12 13 -29 18 -37 5 -8 18 -35 29 -60 11 -25 31 -70 45 -100 57 -125 68 -160 61 -195 -8 -43 -34 -48 -34 -7 0 46 -21 65 -70 65 -47 0 -80 -27 -80 -63 0 -54 146 -84 190 -40 11 11 20 28 20 39 0 10 7 24 15 31 8 7 15 20 15 29 0 9 9 42 20 74 25 70 25 94 3 101 -17 5 -53 76 -53 102 0 7 -7 17 -16 25 -12 10 -14 23 -9 56 l6 43 -95 0 c-77 0 -96 -3 -96 -14z"/> <path d="M6567 1854 c-3 -4 3 -18 13 -32 18 -23 20 -41 20 -228 0 -196 -1 -204 -22 -224 -12 -11 -20 -22 -17 -24 11 -11 230 -9 241 2 12 12 3 18 -37 24 -16 3 -21 12 -23 49 l-3 47 63 -5 c51 -4 66 -2 77 11 7 9 19 16 25 16 21 0 56 67 67 128 23 131 -31 242 -119 242 -76 0 -91 -19 -44 -56 27 -22 27 -23 27 -144 l0 -122 -33 -29 c-34 -31 -57 -37 -64 -16 -2 6 -1 83 2 170 3 87 2 167 -2 178 -6 17 -18 19 -86 19 -43 0 -82 -3 -85 -6z"/> <path d="M7016 1851 c-3 -5 6 -21 19 -35 25 -27 25 -28 25 -222 l0 -195 -27 -25 c-14 -13 -24 -27 -20 -30 5 -5 134 -8 225 -5 33 1 27 19 -14 36 -33 13 -35 17 -32 52 l3 38 60 -3 c52 -2 65 2 100 26 31 22 43 39 57 82 47 152 -7 290 -114 290 -41 0 -68 -8 -68 -20 0 -5 13 -21 28 -37 66 -66 44 -297 -31 -317 -12 -3 -26 -6 -30 -6 -5 0 -7 80 -6 178 1 99 -1 184 -5 190 -8 14 -162 17 -170 3z"/> <path d="M7569 1837 c-55 -37 -79 -90 -79 -175 0 -91 17 -132 71 -171 37 -27 50 -31 111 -31 56 0 76 5 108 25 65 41 75 65 75 175 0 90 -2 99 -27 132 -37 49 -83 68 -161 68 -50 0 -71 -5 -98 -23z m143 -48 c22 -45 24 -201 3 -252 -17 -42 -28 -50 -54 -42 -25 8 -41 74 -41 168 0 80 13 135 38 155 22 17 34 11 54 -29z"/> <path d="M7904 1848 c-4 -6 3 -20 17 -31 23 -19 24 -23 24 -164 0 -140 -1 -145 -24 -162 -13 -10 -19 -21 -14 -24 8 -5 147 -10 221 -8 31 1 29 31 -3 31 -13 0 -28 8 -33 18 -15 27 -21 249 -9 289 10 31 9 37 -8 49 -24 18 -161 19 -171 2z"/> <path d="M8138 1850 c-13 -8 -18 -24 -18 -60 0 -83 54 -114 103 -58 20 24 23 91 4 107 -21 17 -70 23 -89 11z"/> <path d="M8593 1837 c-43 -33 -52 -49 -53 -89 0 -32 8 -44 75 -109 41 -41 78 -82 81 -91 9 -31 -14 -58 -50 -58 -30 0 -35 5 -61 55 -38 76 -55 73 -55 -11 l0 -66 39 7 c24 4 42 2 46 -4 3 -6 33 -11 66 -11 92 0 159 49 159 117 0 38 -17 60 -99 128 -75 61 -90 94 -52 115 37 20 60 12 80 -28 42 -83 74 -79 69 9 l-3 54 -107 1 c-96 2 -111 0 -135 -19z"/> <path d="M9141 1843 c-18 -9 -47 -35 -62 -56 -27 -37 -29 -47 -29 -125 0 -99 18 -138 81 -178 50 -31 151 -34 204 -5 63 34 78 63 83 162 5 108 -16 163 -76 196 -47 27 -151 30 -201 6z m129 -45 c16 -27 20 -51 20 -135 0 -111 -18 -173 -51 -173 -27 0 -38 22 -51 103 -18 121 8 235 55 237 4 0 16 -15 27 -32z"/> <path d="M10985 1844 c-70 -36 -97 -87 -98 -184 -2 -124 62 -200 169 -200 55 0 95 20 128 63 44 57 30 87 -21 47 -35 -27 -94 -27 -119 1 -14 16 -19 39 -21 102 -3 100 6 137 36 148 19 8 24 4 37 -27 9 -21 12 -48 8 -68 l-6 -34 46 -3 c61 -5 66 -3 66 37 0 43 -21 86 -56 113 -33 26 -124 29 -169 5z"/> <path d="M11312 1839 c-37 -22 -52 -48 -52 -89 0 -44 15 -68 55 -85 19 -7 35 -18 35 -23 0 -5 -13 -23 -30 -40 -32 -34 -38 -68 -17 -93 29 -35 53 -44 126 -49 73 -5 76 -6 79 -31 5 -44 -20 -59 -98 -59 -75 0 -93 13 -87 61 3 31 -20 34 -60 9 -22 -13 -33 -28 -33 -43 0 -15 11 -29 33 -42 28 -17 48 -19 146 -17 119 3 136 8 194 61 36 33 38 97 4 129 -28 26 -110 45 -163 37 -33 -5 -44 -2 -58 14 -18 19 -18 22 -1 47 14 22 22 25 47 20 31 -6 90 14 120 41 41 37 9 132 -52 156 -52 21 -152 19 -188 -4z m120 -26 c42 -38 7 -180 -36 -144 -29 24 -19 161 13 161 2 0 13 -7 23 -17z"/> <path d="M11582 1848 c-17 -17 -15 -29 11 -62 20 -25 26 -27 45 -17 15 8 22 21 22 39 0 33 -16 52 -45 52 -12 0 -26 -5 -33 -12z"/> <path d="M11835 1850 c-5 -8 1 -19 16 -31 23 -17 26 -32 20 -129 -1 -14 1 -45 5 -70 3 -29 1 -58 -8 -78 -12 -30 -15 -31 -38 -19 -31 15 -39 67 -16 102 34 52 10 56 -79 14 -69 -33 -83 -102 -33 -156 28 -30 97 -32 123 -3 10 11 24 20 30 20 7 0 24 -9 38 -20 35 -27 127 -29 127 -2 0 10 -4 22 -9 27 -5 6 -11 74 -13 152 -3 139 -4 143 -30 169 -30 31 -119 46 -133 24z"/> <path d="M12075 1849 c-4 -6 2 -21 14 -33 19 -21 21 -34 21 -167 0 -133 -1 -145 -20 -157 -39 -24 -20 -32 80 -32 55 0 100 4 100 8 0 5 -7 17 -15 28 -18 24 -21 254 -4 303 10 28 9 34 -7 46 -23 17 -159 21 -169 4z"/> <path d="M12297 1849 c-17 -10 -16 -12 7 -34 26 -24 26 -26 26 -168 0 -116 -3 -147 -15 -157 -30 -25 -13 -30 90 -30 103 0 126 8 85 30 -19 10 -20 21 -20 151 0 154 -10 192 -56 209 -33 13 -94 12 -117 -1z"/> <path d="M3588 1827 c-57 -47 -22 -143 44 -118 42 16 52 37 42 89 -8 40 -13 47 -34 49 -14 2 -37 -7 -52 -20z"/> <path d="M11719 1821 c-36 -37 -38 -73 -4 -99 19 -15 33 -18 53 -13 35 9 57 52 42 82 -6 11 -9 27 -6 34 5 14 -14 25 -41 25 -8 0 -28 -13 -44 -29z"/> <path d="M3625 1649 c-93 -37 -120 -98 -69 -158 22 -27 33 -31 73 -31 37 0 52 5 69 23 l22 23 -30 22 c-35 27 -38 54 -10 100 11 18 20 35 20 37 0 9 -25 4 -75 -16z"/> </g> </svg> 