<?xml version="1.0" standalone="no"?>
<!DOCTYPE svg PUBLIC "-//W3C//DTD SVG 20010904//EN"
 "http://www.w3.org/TR/2001/REC-SVG-20010904/DTD/svg10.dtd">
<svg version="1.0" xmlns="http://www.w3.org/2000/svg"
 width="300.000000pt" height="53.000000pt" viewBox="0 0 300.000000 53.000000"
 preserveAspectRatio="xMidYMid meet">
<metadata>
Created by potrace 1.10, written by Peter Selinger 2001-2011
</metadata>
<g transform="translate(0.000000,53.000000) scale(0.100000,-0.100000)"
fill="#000000" stroke="none">
<path d="M363 513 c-7 -3 -13 -12 -13 -21 1 -18 44 -72 58 -72 4 0 21 14 37
30 24 25 27 34 19 48 -11 16 -72 25 -101 15z"/>
<path d="M220 470 c-41 -6 -60 -15 -77 -35 -26 -30 -29 -61 -9 -84 22 -24 23
-95 3 -115 -14 -14 -17 -37 -17 -122 l0 -104 85 0 85 0 0 36 0 36 31 -26 c36
-31 69 -41 109 -32 17 3 30 1 30 -4 0 -6 36 -10 85 -10 l85 0 0 170 c0 225 -5
235 -117 247 -46 4 -52 2 -58 -17 -4 -14 -1 -28 10 -40 15 -17 16 -24 5 -50
-10 -23 -10 -34 -1 -43 6 -6 11 -21 11 -34 0 -14 6 -23 15 -23 8 0 15 -4 15
-10 0 -5 -8 -10 -19 -10 -10 0 -21 -9 -24 -21 -5 -17 -8 -18 -25 -8 -17 10
-18 17 -10 38 10 28 2 88 -14 109 -6 7 -33 12 -64 12 -47 0 -54 -3 -54 -19 0
-11 4 -23 10 -26 5 -3 7 -19 4 -34 -3 -16 -1 -38 5 -49 8 -16 7 -21 -5 -26
-20 -8 -34 1 -34 20 0 7 -9 19 -20 26 -24 15 -26 34 -5 42 8 3 15 14 15 24 0
10 5 23 12 30 9 9 8 18 -2 37 -11 21 -12 30 -2 45 13 22 17 81 5 79 -5 -1 -33
-5 -63 -9z m42 -110 c5 -31 -3 -52 -18 -49 -24 4 -26 -3 -4 -16 22 -12 23 -14
7 -20 -42 -17 -91 21 -66 51 6 7 8 18 4 24 -13 22 4 40 39 40 30 0 34 -3 38
-30z m296 -72 l3 -58 -30 0 c-37 0 -48 15 -18 25 22 7 22 7 -3 14 -15 4 -25
14 -24 24 3 58 3 58 37 55 32 -3 32 -4 35 -60z m-138 -44 c0 -39 -18 -64 -45
-64 -27 0 -45 25 -45 64 0 24 3 26 45 26 42 0 45 -2 45 -26z m-162 -83 l41
-48 -33 -32 c-27 -26 -40 -32 -67 -29 l-34 3 -3 64 c-4 78 1 91 31 91 16 0 37
-16 65 -49z m252 4 c18 0 12 -19 -9 -27 -19 -6 -21 -4 -21 25 0 24 3 28 10 17
5 -8 14 -15 20 -15z m71 -6 c24 -26 29 -40 29 -80 l0 -49 -65 0 c-70 0 -82 10
-35 30 17 7 30 16 30 21 0 13 -6 12 -60 -16 -48 -24 -114 -33 -124 -17 -2 4 7
9 22 10 14 1 44 14 66 28 22 15 51 30 65 34 21 6 26 12 25 38 -2 40 10 40 47
1z m-231 -14 c16 -19 29 -19 51 1 10 9 24 14 31 12 8 -3 0 -13 -21 -26 -35
-21 -44 -20 -86 12 -17 13 -17 15 -4 16 9 0 22 -7 29 -15z"/>
<path d="M303 403 c-3 -8 4 -24 16 -36 17 -17 25 -19 39 -11 9 6 17 22 17 35
0 20 -5 24 -33 25 -21 1 -36 -4 -39 -13z"/>
<path d="M1104 342 c-7 -4 -14 -35 -15 -70 -4 -58 -3 -62 18 -62 12 0 25 -4
28 -10 3 -6 15 -10 27 -10 17 0 18 2 8 15 -7 8 -20 14 -29 13 -13 -3 -17 10
-21 64 -4 47 -8 65 -16 60z"/>
<path d="M2330 343 c-12 -3 -14 -16 -12 -63 5 -73 -10 -78 -34 -12 -21 58 -31
69 -44 56 -7 -7 -5 -23 5 -48 9 -21 14 -45 11 -52 -4 -11 6 -14 47 -14 l52 0
-3 52 c-4 78 -6 84 -22 81z"/>
<path d="M2385 342 c-6 -4 -10 -35 -10 -70 0 -48 3 -62 15 -62 12 0 15 14 15
64 0 67 -4 80 -20 68z"/>
<path d="M2124 329 c-4 -6 -7 -36 -8 -65 -1 -50 0 -54 21 -54 14 0 21 5 18 13
-2 6 -6 31 -8 55 -3 33 -1 42 11 40 8 -2 17 3 19 10 6 15 -43 17 -53 1z"/>
<path d="M695 270 c0 -58 1 -60 26 -60 23 0 25 3 21 32 -5 30 -3 32 12 19 14
-12 16 -11 16 9 0 16 -4 20 -15 16 -11 -4 -15 1 -15 19 0 19 -5 25 -22 25 -21
0 -23 -4 -23 -60z"/>
<path d="M1263 314 c-3 -9 5 -26 21 -43 14 -15 26 -32 26 -39 0 -21 -30 -13
-40 11 l-9 22 0 -22 c-1 -39 69 -43 84 -5 4 12 -3 25 -24 43 -17 14 -31 29
-31 32 0 12 38 7 43 -5 3 -8 6 -6 6 5 1 23 -67 25 -76 1z"/>
<path d="M1849 328 c-7 -20 -2 -102 8 -109 20 -17 32 -1 23 30 -4 15 -6 40 -3
55 4 19 1 26 -11 26 -9 0 -16 -1 -17 -2z"/>
<path d="M829 267 c-1 -23 -3 -34 -6 -24 -6 23 -28 16 -28 -9 0 -14 8 -19 33
-20 31 -2 32 -1 32 41 0 29 -5 45 -15 49 -12 4 -15 -4 -16 -37z"/>
<path d="M885 260 c0 -38 4 -50 15 -50 29 0 18 99 -10 100 -3 0 -5 -22 -5 -50z"/>
<path d="M978 305 c-2 -2 -2 -24 0 -49 3 -38 7 -46 24 -46 14 0 18 5 14 16 -3
9 -6 28 -6 44 0 24 -20 46 -32 35z"/>
<path d="M1140 303 c0 -14 35 -93 41 -93 15 0 14 37 0 65 -15 27 -41 45 -41
28z"/>
<path d="M1365 273 c9 -51 13 -63 23 -63 4 0 7 21 6 48 -1 35 -6 48 -19 50
-14 3 -15 -2 -10 -35z"/>
<path d="M1415 263 c1 -34 6 -49 16 -51 12 -2 14 8 13 45 -1 32 -7 49 -16 51
-10 2 -13 -10 -13 -45z"/>
<path d="M1465 250 c0 -53 2 -60 20 -60 18 0 20 5 16 52 -3 46 -13 67 -31 68
-3 0 -5 -27 -5 -60z"/>
<path d="M1519 309 c0 -2 -1 -25 -2 -51 -3 -42 -1 -45 15 -37 22 12 24 62 3
79 -8 7 -15 11 -16 9z"/>
<path d="M1565 250 c0 -53 2 -60 20 -60 18 0 20 5 16 52 -3 46 -13 67 -31 68
-3 0 -5 -27 -5 -60z"/>
<path d="M1619 307 c0 -1 -1 -23 -2 -49 -3 -42 -1 -45 15 -37 23 12 25 74 3
83 -8 3 -15 4 -16 3z"/>
<path d="M1688 299 c-22 -12 -24 -62 -3 -79 12 -10 21 -10 40 -2 29 13 34 52
9 76 -18 19 -23 19 -46 5z m32 -39 c0 -16 -4 -32 -10 -35 -6 -4 -10 10 -10 35
0 25 4 39 10 35 6 -3 10 -19 10 -35z"/>
<path d="M1765 260 c0 -43 3 -50 20 -50 18 0 20 5 17 43 -4 37 -15 56 -32 57
-3 0 -5 -22 -5 -50z"/>
<path d="M1910 295 c-10 -13 -10 -19 5 -35 10 -11 15 -26 12 -35 -8 -19 3 -19
29 -1 19 14 19 15 -5 39 -12 14 -20 30 -16 36 10 17 -11 13 -25 -4z"/>
<path d="M2026 294 c-9 -8 -16 -24 -16 -34 0 -22 25 -50 45 -50 20 0 45 28 45
50 0 17 -24 50 -37 50 -2 0 -2 -13 2 -30 3 -16 2 -37 -3 -46 -9 -16 -10 -15
-16 4 -4 11 -4 32 0 46 7 30 2 33 -20 10z"/>
<path d="M2436 294 c-9 -8 -16 -24 -16 -34 0 -19 25 -50 39 -50 5 0 14 7 22
16 11 14 10 15 -7 12 -14 -2 -20 4 -22 21 -2 13 1 28 7 34 8 8 11 6 11 -6 0
-9 5 -17 10 -17 16 0 11 27 -6 34 -21 8 -20 8 -38 -10z"/>
<path d="M2565 302 c-23 -8 -30 -42 -9 -42 8 0 14 7 14 16 0 8 5 12 10 9 6 -3
10 1 10 9 0 9 -1 16 -2 15 -2 -1 -12 -4 -23 -7z"/>
<path d="M2618 303 c-21 -5 -24 -33 -4 -33 8 0 17 8 19 18 3 9 5 0 6 -21 1
-24 -3 -36 -9 -32 -6 4 -7 11 -4 17 4 6 1 9 -7 6 -8 -3 -14 -13 -14 -23 0 -13
9 -18 33 -20 31 -3 32 -1 32 36 0 41 -19 59 -52 52z"/>
<path d="M2690 259 c0 -40 3 -49 18 -49 14 0 17 7 14 40 -3 25 0 40 7 40 6 0
11 -17 11 -40 0 -33 3 -40 19 -40 17 0 18 5 14 43 -3 23 -7 43 -8 45 -2 2 -19
5 -39 7 l-36 3 0 -49z"/>
<path d="M930 255 c0 -36 3 -45 18 -45 14 0 17 7 14 45 -3 30 -9 45 -18 45
-10 0 -14 -13 -14 -45z"/>
<path d="M1035 255 c0 -36 3 -45 18 -45 14 0 17 9 17 45 0 36 -3 45 -17 45
-15 0 -18 -9 -18 -45z"/>
<path d="M2505 290 c-4 -6 -2 -17 4 -24 6 -7 9 -20 5 -29 -4 -11 2 -16 18 -19
13 -2 22 -9 21 -16 -4 -18 24 -15 31 4 9 22 -1 34 -30 34 -20 0 -24 5 -24 30
0 30 -13 40 -25 20z"/>
<path d="M2202 245 c-15 -33 -15 -35 4 -35 11 0 14 5 10 16 -4 9 -1 23 5 30 6
8 7 14 2 14 -5 0 -15 -11 -21 -25z"/>
</g>
</svg>
